<svg id="图层_1" data-name="图层 1" xmlns="http://www.w3.org/2000/svg" viewBox="0 0 205 202"><defs><style>.cls-1{fill:#dd6b43;}.cls-2{fill:#fad39d;}</style></defs><title>尾巴</title><path class="cls-1" d="M18,26S7,95,92,78s64,89,18,98h9s51-8,67-56,6-90-45-108c0,0-22-7-62,13S18,26,18,26Z"/><path class="cls-2" d="M76,70s-16-1-23-6c0,0,21-4,22-12,0,0-15-8-27-6,0,0,17-6,17-12a36.67,36.67,0,0,1-20.49.16C27,34.16,18,26,18,26S9.62,78.62,64.11,80.63C71.73,77,74.71,75.18,76,70Z"/><path class="cls-1" d="M124,170.22a23.84,23.84,0,0,0-11.61-4.7c-8-.85-10.08,8.47-3.17,13.63l21.43,16C135.94,188.06,133,176.9,124,170.22Z"/></svg>